<?xml version="1.0" encoding="UTF-8"?>
<svg id="Layer_1" data-name="Layer 1" xmlns="http://www.w3.org/2000/svg" viewBox="0 0 453.11 99.05">
  <defs>
    <style>
      .cls-1 {
        fill: #04b492;
      }
    </style>
  </defs>
  <path class="cls-1" d="M331.47,.53c-.9,.5-1.01,1.74-1.01,12.55v12.04h-1.29c-2.58,0-3.19,1.51-3.19,8.01v5.94l-2.91,.84c-4.37,1.29-7.95,3.81-10.19,7.17-2.58,3.86-3.36,7.23-3.02,12.94,.28,5.15,1.57,8.4,4.7,12.04,2.18,2.58,7.95,5.71,10.47,5.71h1.68l-.39,9.24c-.34,8.79-.28,9.3,.78,10.36s1.79,1.12,18.65,1.12c14.23,0,17.76-.17,18.65-.78,.95-.73,1.12-1.74,1.34-9.97,.28-8.4,.45-9.41,1.79-12.32,3.02-6.55,10.42-11.65,16.8-11.65s11.87,3.25,16.13,9.58c1.79,2.58,2.63,3.3,4.14,3.58,2.58,.5,3.86-.28,6.44-4.09,4.14-6.11,8.29-9.02,13.44-9.47,6.83-.62,13.95,4.2,17.81,11.93,2.02,4.14,2.02,4.26,2.35,13.16,.28,8.07,.45,9.07,1.4,9.8,1.62,1.18,4.59,1.01,5.99-.39,1.12-1.12,1.18-1.62,.95-9.97-.34-10.31-1.4-14.17-5.77-20.72-2.3-3.53-7.39-8.51-9.35-9.13-.39-.17,.39-1.51,1.9-3.36,3.25-3.92,4.09-6.33,4.09-11.65,0-3.36-.28-4.82-1.51-7.34-5.49-11.76-20.56-14.56-29.57-5.54-3.7,3.7-5.32,7.73-5.32,13.16s1.23,8.4,4.7,12.21l2.3,2.46-2.35,1.62c-1.29,.9-3.25,2.8-4.37,4.2l-2.02,2.58-2.07-2.41c-1.18-1.34-3.3-3.19-4.76-4.14l-2.69-1.74,2.18-2.3c3.47-3.64,5.1-7.73,5.1-12.77,0-7.34-3.64-13.11-10.19-16.35-3.25-1.62-4.26-1.85-8.23-1.85-3.75,0-4.98,.22-7.62,1.57-3.7,1.79-7.39,5.54-9.07,9.24-.95,2.02-1.23,3.7-1.23,7.39,0,5.54,1.12,8.51,4.48,12.27,1.18,1.29,2.02,2.41,1.9,2.52s-1.34,.9-2.69,1.74c-5.66,3.53-10.75,10.75-12.6,17.98-.5,1.96-.9,5.71-.9,8.57v5.1h-23.13l.34-3.81c.22-2.07,.39-5.26,.39-7.11,0-3.36,.06-3.42,1.85-4.09,2.46-.9,6.55-3.92,6.55-4.93,0-.45-1.06-1.79-2.3-3.02l-2.35-2.24-1.85,1.4c-7,5.38-15.46,3.47-18.04-4.09l-.62-1.79h25.15l.9-1.4c1.12-1.68,.84-6.27-.62-10.31-.45-1.34-.84-4.14-.84-6.27,0-3.47-.11-3.86-1.12-3.86-1.06,0-1.12-.39-1.12-6.16,0-5.43-.11-6.27-1.12-7.28-.62-.62-1.74-1.12-2.52-1.12h-1.4V13.47c0-10.64-.11-11.76-1.01-12.6-1.18-1.06-1.68-1.12-3.02-.34Zm59.43,34.28c6.11,4.03,5.88,13.27-.39,17.25-3.02,1.9-6.05,2.13-9.35,.56-4.03-1.85-5.88-4.82-5.88-9.3s1.85-7.39,5.88-9.35c2.97-1.4,6.83-1.06,9.75,.84Zm40.44,.06c2.52,1.68,4.42,5.43,4.42,8.68,0,7.17-7.23,12.04-13.83,9.3-2.8-1.18-4.03-2.35-5.26-5.04-2.69-5.83,.17-12.43,6.11-14.34,2.35-.73,6.27-.06,8.57,1.4Zm-98.8,12.66c2.02,1.23,3.36,3.02,4.09,5.54l.5,1.74h-9.52c-5.21,0-9.47-.17-9.47-.39s.5-1.46,1.18-2.8c2.24-4.7,8.91-6.72,13.22-4.09Z"/>
  <path class="cls-1" d="M12.88,25.4c-7.51,2.13-11.43,6.95-11.43,14,0,8.07,3.53,11.43,17.25,16.24,7.28,2.58,9.86,5.88,7.9,10.03-2.52,5.26-11.26,5.6-18.99,.73l-2.74-1.74-2.46,2.69c-1.29,1.46-2.41,3.02-2.41,3.42,0,1.06,4.2,3.92,7.9,5.32,3.75,1.51,10.92,2.02,15.12,1.18,4.54-.95,8.79-3.7,10.81-7,1.34-2.13,1.74-3.53,1.9-6.5,.5-8.68-3.14-12.94-14.17-16.58-2.46-.84-5.66-2.07-7.11-2.8-4.65-2.35-5.49-6.22-2.07-9.52,1.4-1.34,2.18-1.62,5.49-1.79,3.92-.22,6.22,.45,10.31,3.08l1.62,1.01,2.18-2.52c1.18-1.4,2.18-2.97,2.18-3.47,0-1.29-3.19-3.64-6.83-5.04-3.92-1.51-10.47-1.79-14.45-.73Z"/>
  <path class="cls-1" d="M161.14,25.51c-.22,.17-.39,11.76-.39,25.71,0,22.57,.11,25.37,.9,25.65,1.57,.62,6.72,.34,7.39-.34,.5-.5,.67-7.06,.67-26.04V25.12h-4.09c-2.3,0-4.31,.17-4.48,.39Z"/>
  <path class="cls-1" d="M193.85,26.97c-.45,.62-.62,7.28-.5,25.37l.17,24.59h7.84l.28-17.36,.28-17.31,6.55,12.83,6.5,12.88,2.18,.17c1.18,.06,2.41-.06,2.69-.28,.34-.28,3.42-6.05,6.89-12.88l6.27-12.43v16.97c0,15.01,.11,17.08,.9,17.36,1.57,.62,6.72,.34,7.39-.34,.5-.5,.67-6.78,.67-24.92,0-27.84,.56-25.37-5.83-25.37-4.48,0-3.47-1.4-12.1,16.75l-6.39,13.33-3.64-7.62c-2.02-4.2-5.32-10.92-7.34-14.9l-3.64-7.28-4.26-.17c-3.14-.11-4.42,.06-4.93,.62Z"/>
  <path class="cls-1" d="M288.84,30.55c-.22,.17-.39,2.46-.39,5.04v4.65h-2.69c-3.14,0-4.03,.67-4.03,3.02,0,3.81,.39,4.26,3.7,4.26h3.02v11.09c0,10.36,.06,11.26,1.29,13.55,1.85,3.75,4.87,5.1,10.75,4.93,4.26-.17,4.48-.22,5.21-1.68,.5-1.06,.56-2.13,.22-3.36-.45-1.79-.56-1.85-3.75-2.02-5.38-.28-5.32-.22-5.32-12.27v-10.25h8.85l.39-2.13c.17-1.18,.06-2.8-.22-3.64-.56-1.46-.73-1.51-4.82-1.51h-4.2v-4.14c0-5.88-.06-5.94-4.14-5.94-1.96,0-3.7,.17-3.86,.39Z"/>
  <path class="cls-1" d="M53.38,39.91c-9.63,3.14-14.9,13.44-12.27,23.86,2.07,8.01,7,12.6,15.07,14,2.91,.5,4.42,.5,6.67,0,4.93-1.18,11.09-4.76,11.09-6.44,0-.45-1.01-1.85-2.18-3.14l-2.24-2.3-1.85,1.4c-5.77,4.31-11.65,4.31-15.68,.06-1.4-1.51-2.69-4.03-2.69-5.32,0-.28,5.15-.5,12.6-.5,14.73,0,14.11,.28,13.55-6.22-.56-6.61-3.98-12.04-9.07-14.51-3.14-1.51-9.69-1.96-12.99-.9Zm11.09,8.51c1.96,1.85,2.41,2.63,2.97,4.82l.34,1.57h-9.24c-5.99,0-9.24-.22-9.24-.56,0-1.01,2.07-4.7,3.19-5.71,1.74-1.57,3.64-2.13,7.06-1.96,2.63,.17,3.47,.45,4.93,1.85Z"/>
  <path class="cls-1" d="M92.58,39.91c-9.24,3.02-14.39,12.32-12.49,22.74,1.18,6.67,4.59,11.2,10.36,13.78,4.09,1.85,7.9,2.18,12.15,1.06,5.71-1.46,9.35-4.31,12.15-9.52,1.34-2.58,1.46-3.36,1.46-9.24s-.17-6.78-1.4-9.24c-1.79-3.58-5.15-6.95-8.68-8.63-3.47-1.62-10.08-2.07-13.55-.95Zm10.87,8.4c3.08,2.02,4.37,4.98,4.37,10.14,0,3.75-.22,4.87-1.4,7-3.7,6.67-13.27,6.5-16.52-.34-1.29-2.69-1.68-7.73-.9-10.75,1.79-6.61,9.02-9.63,14.45-6.05Z"/>
  <path class="cls-1" d="M261.06,39.8c-4.98,.78-11.82,5.38-11.82,7.95,0,.78,3.58,4.26,4.37,4.26,.28,0,1.18-.78,2.13-1.74,3.14-3.36,8.23-4.76,11.43-3.14,1.74,.84,3.92,4.09,3.92,5.71,0,1.46-1.23,1.96-4.87,1.96-3.92,0-10.36,1.62-13.05,3.25-1.34,.84-3.08,2.41-3.81,3.47-1.12,1.68-1.29,2.52-1.12,5.6,.22,4.42,1.57,6.55,5.32,8.79,4.59,2.69,11.93,1.96,15.68-1.46l1.79-1.62,.17,2.07,.17,2.02h7.28l.17-12.55c.17-14.45-.28-17.14-3.58-20.78-3.08-3.42-8.01-4.76-14.17-3.81Zm10.03,22.96c0,4.03-4.26,7.73-8.91,7.73-4.26,0-7.34-4.48-4.65-6.89,1.34-1.23,6.5-2.41,11.2-2.58,2.3-.06,2.35,0,2.35,1.74Z"/>
  <path class="cls-1" d="M121.77,41.03c-.17,.45-.22,6.78-.11,14.11,.17,12.99,.22,13.5,1.57,16.19,1.96,3.92,4.98,5.94,9.58,6.27,4.54,.39,7.62-.45,10.87-2.91q2.52-1.96,2.18-.56c-.56,2.24,.62,3.08,4.26,3.08,2.07,0,3.47-.28,3.86-.78,.45-.5,.62-5.83,.5-18.32l-.17-17.59-3.53-.17c-2.13-.11-3.86,.11-4.37,.5-.62,.5-.78,2.91-.78,11.99,0,10.81-.06,11.43-1.29,13.16-3.25,4.93-11.2,5.66-13.22,1.29-.39-.84-.62-5.77-.62-13.5,0-8.74-.17-12.38-.67-12.88-1.01-1.01-7.67-.9-8.07,.11Z"/>
</svg>